<svg width="28" height="28" viewBox="0 0 28 28" fill="none" xmlns="http://www.w3.org/2000/svg">
<circle cx="14" cy="14" r="13" stroke="#A21CAF" stroke-width="2"/>
<path d="M13 22C13 22.5523 13.4477 23 14 23C14.5523 23 15 22.5523 15 22L13 22ZM14.7071 5.29289C14.3166 4.90237 13.6834 4.90237 13.2929 5.29289L6.92893 11.6569C6.53841 12.0474 6.53841 12.6805 6.92893 13.0711C7.31946 13.4616 7.95262 13.4616 8.34315 13.0711L14 7.41421L19.6569 13.0711C20.0474 13.4616 20.6805 13.4616 21.0711 13.0711C21.4616 12.6805 21.4616 12.0474 21.0711 11.6569L14.7071 5.29289ZM15 22L15 6L13 6L13 22L15 22Z" fill="#A21CAF"/>
</svg>
