<svg width="350" height="350" viewBox="0 0 350 350" fill="none" xmlns="http://www.w3.org/2000/svg"><path d="M86.178 170.914c-.003 86.597 232.365 30.857 110.163 114.471-90.432 61.875 4.289-10.722 50.592-132.637 33.675-88.667-160.752-83.84-160.755 18.166Z" stroke="url(#a)" stroke-width="13.984"/><path d="M132.01 159.205c19.92 16.757 52.479 11.746 72.054-11.33" stroke="#FF1A88" stroke-width="15.849" stroke-linecap="round"/><path d="M215.189 227.587c19.361 0 62.195 4.454 70.148-42.808" stroke="url(#b)" stroke-opacity=".6" stroke-width="8.576"/><path d="M200.395 236.82c-19.229.753-59.301 11.664-65.765 49.277" stroke="url(#c)" stroke-opacity=".6" stroke-width="8.576"/><path d="M148.724 95.172c4.002 11.637 4.469 23.222 2.025 32.532-2.446 9.316-7.774 16.267-15.302 18.857-7.529 2.589-16.005.385-23.663-5.455-7.654-5.837-14.412-15.259-18.414-26.896-4.003-11.636-4.47-23.222-2.025-32.532 2.446-9.316 7.773-16.267 15.302-18.856 7.528-2.59 16.004-.386 23.663 5.455 7.653 5.837 14.412 15.258 18.414 26.895Z" fill="url(#d)" stroke="#E3E3E3" stroke-width="1.493"/><path d="M138.328 125.871c8.708-2.996 12.126-16.013 7.633-29.077-4.493-13.063-15.195-21.225-23.904-18.23-8.708 2.996-12.126 16.014-7.633 29.077 4.493 13.063 15.195 21.225 23.904 18.23Z" fill="#000"/><path d="M222.978 96.786c-1.123 12.254-5.449 23.012-11.497 30.5-6.051 7.493-13.761 11.648-21.689 10.921-7.928-.726-14.755-6.212-19.344-14.68-4.586-8.463-6.886-19.827-5.763-32.082 1.123-12.254 5.449-23.011 11.496-30.5 6.052-7.493 13.762-11.647 21.69-10.921 7.928.726 14.754 6.212 19.344 14.68 4.586 8.463 6.885 19.827 5.763 32.082Z" fill="url(#e)" stroke="#E3E3E3" stroke-width="1.493"/><path d="M182.934 120.194c9.171.841 17.627-9.63 18.887-23.387 1.261-13.757-5.152-25.59-14.323-26.43-9.171-.84-17.627 9.63-18.888 23.387-1.26 13.757 5.153 25.59 14.324 26.43Z" fill="#000"/><path d="M166.281 46.61c1.883 7.65 1.512 15.054-.574 20.828-2.087 5.78-5.852 9.843-10.717 11.041-4.864 1.198-10.086-.654-14.618-4.804-4.528-4.145-8.293-10.53-10.177-18.18-1.883-7.652-1.512-15.055.573-20.829 2.088-5.78 5.853-9.843 10.718-11.041 4.864-1.198 10.085.654 14.618 4.804 4.527 4.146 8.293 10.53 10.177 18.18v.001Z" fill="url(#f)" stroke="#E3E3E3" stroke-width="1.493"/><path d="M153.14 72.147c5.758-1.418 8.703-9.57 6.576-18.208-2.127-8.637-8.519-14.49-14.277-13.072-5.759 1.417-8.703 9.569-6.576 18.207 2.126 8.637 8.518 14.49 14.277 13.073Z" fill="#000"/><path d="M187.89 90.602a8.87 8.87 0 0 0 8.87-8.87 8.87 8.87 0 0 0-8.87-8.87 8.87 8.87 0 0 0-8.87 8.87 8.87 8.87 0 0 0 8.87 8.87Zm-59.358 8.187a8.87 8.87 0 0 0 8.87-8.87 8.87 8.87 0 0 0-8.87-8.87 8.87 8.87 0 0 0-8.87 8.87 8.87 8.87 0 0 0 8.87 8.87Zm21.49-45.031a5.117 5.117 0 1 0 0-10.234 5.117 5.117 0 0 0 0 10.234Z" fill="#fff"/><path d="M269.911 176.233c2.717-8.856 12.098-13.832 20.954-11.116 8.855 2.717 13.832 12.098 11.116 20.953-2.717 8.856-12.098 13.833-20.954 11.116-8.855-2.716-13.832-12.097-11.116-20.953Z" fill="url(#g)"/><path d="M115.027 289.496c2.717-8.856 12.098-13.832 20.954-11.116 8.855 2.717 13.832 12.098 11.116 20.953-2.717 8.856-12.098 13.833-20.954 11.116-8.855-2.716-13.832-12.097-11.116-20.953Z" fill="url(#h)"/><defs><radialGradient id="d" cx="0" cy="0" r="1" gradientUnits="userSpaceOnUse" gradientTransform="matrix(11.93399 51.49082 -37.60217 8.71502 120.378 94.412)"><stop offset=".797" stop-color="#fff"/><stop offset=".875" stop-color="#D2FBFD"/><stop offset="1" stop-color="#5A9DEB"/></radialGradient><radialGradient id="e" cx="0" cy="0" r="1" gradientUnits="userSpaceOnUse" gradientTransform="rotate(101.165 64.006 123.373) scale(52.8557 38.5989)"><stop offset=".797" stop-color="#fff"/><stop offset=".875" stop-color="#D2FBFD"/><stop offset="1" stop-color="#5A9DEB"/></radialGradient><radialGradient id="f" cx="0" cy="0" r="1" gradientUnits="userSpaceOnUse" gradientTransform="matrix(4.67816 33.71367 -24.62 3.4163 148.404 44.422)"><stop offset=".797" stop-color="#fff"/><stop offset=".875" stop-color="#D2FBFD"/><stop offset="1" stop-color="#5A9DEB"/></radialGradient><radialGradient id="g" cx="0" cy="0" r="1" gradientUnits="userSpaceOnUse" gradientTransform="rotate(102.608 75.351 199.79) scale(26.5684 26.5682)"><stop offset=".036" stop-color="#fff"/><stop offset=".656" stop-color="#FFD115"/><stop offset="1" stop-color="#FF4E8E"/></radialGradient><radialGradient id="h" cx="0" cy="0" r="1" gradientUnits="userSpaceOnUse" gradientTransform="rotate(102.608 -47.455 194.388) scale(26.5684 26.5682)"><stop offset=".036" stop-color="#fff"/><stop offset=".656" stop-color="#FFD115"/><stop offset="1" stop-color="#FF4E8E"/></radialGradient><linearGradient id="a" x1="167.391" y1="341.319" x2="216.172" y2="107.233" gradientUnits="userSpaceOnUse"><stop stop-color="#FFE600"/><stop offset="1" stop-color="#FF4E8D"/></linearGradient><linearGradient id="b" x1="317.529" y1="226.381" x2="221.665" y2="230.475" gradientUnits="userSpaceOnUse"><stop offset=".849" stop-color="#BC4EFF"/><stop offset="1" stop-color="#A424F2" stop-opacity="0"/></linearGradient><linearGradient id="c" x1="85.203" y1="278.918" x2="189.254" y2="236.616" gradientUnits="userSpaceOnUse"><stop offset=".849" stop-color="#850091"/><stop offset="1" stop-color="#C212D2" stop-opacity="0"/></linearGradient></defs></svg>
